<svg id="Layer_1" data-name="Layer 1" xmlns="http://www.w3.org/2000/svg" xmlns:xlink="http://www.w3.org/1999/xlink" viewBox="0 0 509.05 509.15"><defs><style>.cls-1{fill:#255fdb;}.cls-2{fill:#4285f4;}.cls-3{fill:#91bfff;}.cls-4{fill:#c4e1ff;}.cls-5{fill:#f5f5f5;}.cls-6{fill-opacity:0.1;fill:url(#radial-gradient);}.cls-7{fill:#fff;}.cls-7,.cls-8{fill-opacity:0.2;}.cls-8{fill:#1a237e;}</style><radialGradient id="radial-gradient" cx="1031.03" cy="-3574.11" r="2.87" gradientTransform="translate(-181383.71 629121.08) scale(176)" gradientUnits="userSpaceOnUse"><stop offset="0" stop-color="#fff"/><stop offset="1" stop-color="#fff" stop-opacity="0"/></radialGradient></defs><title>google-earth</title><g id="g61"><path id="path4" class="cls-1" d="M175.54,307.62C88.77,192.83-.32,280.06,22.94,360.29,81.43,488.22,232.55,544.51,360.48,486a254.69,254.69,0,0,0,107.88-93.19c-67.08,62.82-188.87,52.32-292.82-85.21Z"/><path id="path6" class="cls-2" d="M253.11,228.58C133.77,47.57,0,144,0,254.61A253.28,253.28,0,0,0,23.14,360.7C7.26,285.76,93.37,228,173.54,335.54,290,491.72,404.2,464.24,468.13,393.18a253.61,253.61,0,0,0,38.81-104.47v.49C479.49,374.35,358.36,388.2,253.11,228.58Z"/><path id="path8" class="cls-3" d="M334.9,147.59c-88.62-146.21-201-133-277-54.69A253.65,253.65,0,0,0,0,254.61c8-107,137.39-181.5,254.53,0,104.12,161.53,233.84,119.45,252.29,35.05v-.81a215.37,215.37,0,0,0,2.06-34.7V242.58c-45.09,32.27-104.39,19.81-174-95Z"/><path id="path10" class="cls-4" d="M335.51,173.62c81.16,130.48,151.13,97.1,173.54,69.19a253.34,253.34,0,0,0-9.4-57.62C461.82,186,453,179.67,415.77,123,358.88,35.8,287.21-23.06,162,17.44A255.87,255.87,0,0,0,57.85,93C143.89,13.82,249.46,35.31,335.51,173.62Z"/><path id="path12" class="cls-5" d="M410.22,134.2c37.11,56.78,59.7,59.67,89.43,51C461.1,49.78,320.07-28.74,184.66,9.81Q173.14,13.08,162,17.44C273.85-17.85,353.18,47,410.22,134.2Z"/></g><circle id="circle27" class="cls-6" cx="254.53" cy="254.61" r="254.53"/><path id="path16" class="cls-7" d="M254.53,3c140,0,253.73,113.08,254.52,253.08v-1.44C509.05,114,395.1.08,254.53.08S0,114,0,254.61v1.44C.8,116.05,114.52,3,254.53,3Z"/><path id="path18" class="cls-8" d="M254.53,506.24C114.52,506.24.8,393.17,0,253.16v1.45C0,395.18,114,509.13,254.53,509.13S509.05,395.18,509.05,254.61v-1.45C508.26,393.17,394.53,506.24,254.53,506.24Z"/></svg>